<svg xmlns="http://www.w3.org/2000/svg" xmlns:xlink="http://www.w3.org/1999/xlink" xml:space="preserve" width="10.1364mm" height="15.236mm" style="shape-rendering:geometricPrecision; text-rendering:geometricPrecision; image-rendering:optimizeQuality; fill-rule:evenodd; clip-rule:evenodd" viewBox="0 0 601 904">
 <defs>
  <style type="text/css">
   <![CDATA[
    .fil0 {fill:#75C32C}
   ]]>
  </style>
 </defs>
 <g id="Capa_x0020_1">
  <metadata id="CorelCorpID_0Corel-Layer"></metadata>
  <path class="fil0" d="M368 207c20,61 105,25 77,50 -19,17 -84,0 -97,-56 -2,-10 -3,-13 3,-18 12,-9 13,14 17,24zm-252 317c-41,8 -68,-24 -80,-49 -23,-44 -9,-71 1,-112 0,1 0,1 1,3l1 9c1,25 -6,49 22,90 20,30 78,25 55,59zm6 -349c-1,0 -2,0 -2,2 -2,6 0,-6 -7,9 -4,10 -5,19 -17,41 -27,50 -70,107 -85,145 -36,91 20,177 110,176 85,-1 143,-86 107,-174 -30,-74 -82,-113 -106,-199zm212 482c-61,130 58,177 63,185 28,54 -111,4 -110,-121 0,-106 75,-123 47,-64zm91 -297c-22,41 -21,71 -72,145 -28,42 -60,87 -83,140 -57,132 29,261 161,259 129,-2 206,-127 154,-258 -29,-77 -104,-152 -141,-248l-11 -30c-6,-8 -1,-3 -8,-8zm-7 -360c-25,77 -57,92 -79,147 -27,68 15,134 83,133 64,-1 107,-65 79,-133 -12,-29 -28,-48 -43,-71 -16,-25 -35,-72 -40,-76z"></path>
 </g>
</svg>